<?xml version="1.0" standalone="no"?>
<!DOCTYPE svg PUBLIC "-//W3C//DTD SVG 20010904//EN"
 "http://www.w3.org/TR/2001/REC-SVG-20010904/DTD/svg10.dtd">
<svg version="1.0" xmlns="http://www.w3.org/2000/svg"
 width="300.000000pt" height="238.000000pt" viewBox="0 0 300.000000 238.000000"
 preserveAspectRatio="xMidYMid meet">
<metadata>
Created by potrace 1.10, written by Peter Selinger 2001-2011
</metadata>
<g transform="translate(0.000000,238.000000) scale(0.100000,-0.100000)"
fill="#000000" stroke="none">
<path d="M1890 1603 c-39 -13 -99 -43 -105 -53 -3 -5 -15 -10 -25 -10 -10 0
-21 -6 -23 -12 -4 -10 -8 -9 -16 2 -8 10 -13 12 -18 4 -5 -6 -18 -14 -30 -18
-13 -4 -23 -12 -23 -18 0 -5 -6 -8 -14 -5 -7 3 -19 0 -26 -6 -10 -9 -12 -8 -7
6 6 17 6 17 -18 0 -13 -10 -25 -22 -25 -26 0 -4 -9 -3 -20 3 -23 13 -27 -2 -5
-20 9 -7 13 -15 11 -18 -3 -2 -12 3 -21 12 -21 20 -46 21 -39 1 5 -11 2 -13
-10 -9 -11 4 -16 1 -16 -11 0 -9 5 -13 10 -10 6 3 10 1 10 -5 0 -7 -8 -9 -19
-5 -11 3 -23 0 -27 -6 -4 -8 -3 -9 4 -5 7 4 12 2 12 -3 0 -16 -14 -13 -36 8
-12 10 -39 22 -62 26 -45 7 -59 5 -54 -9 2 -5 -4 -6 -11 -3 -8 3 -28 -9 -47
-28 -29 -30 -31 -36 -25 -79 4 -25 11 -46 15 -46 4 0 5 -11 2 -25 -3 -19 -8
-23 -17 -15 -6 5 -14 8 -16 5 -3 -2 -48 -15 -101 -29 -168 -44 -244 -99 -231
-169 8 -42 72 -90 155 -117 40 -12 76 -25 80 -27 4 -2 -1 -18 -12 -35 -32 -54
6 -118 71 -118 33 0 42 5 63 37 19 28 22 39 13 45 -9 6 -9 8 1 8 6 0 12 7 12
15 0 8 7 15 15 15 8 0 15 -5 15 -12 0 -6 3 -8 7 -5 3 4 11 3 17 -2 23 -18 56
-19 65 -3 5 9 13 13 17 9 5 -5 2 -12 -6 -17 -13 -8 -12 -12 5 -24 11 -8 28
-13 38 -10 16 5 25 -11 10 -18 -5 -1 3 -14 16 -28 13 -14 21 -20 18 -14 -4 7
0 15 9 18 24 9 29 0 10 -19 -20 -21 -21 -32 -1 -15 11 9 18 10 29 1 11 -9 17
-8 29 4 10 9 18 11 22 5 3 -5 1 -10 -4 -10 -6 0 -11 -4 -11 -10 0 -5 7 -7 15
-4 8 4 15 1 15 -5 0 -6 -5 -11 -12 -11 -6 0 -9 -3 -6 -6 3 -3 16 1 28 8 18 11
23 11 35 -6 7 -10 19 -15 25 -11 6 4 17 1 25 -5 12 -10 15 -9 15 4 0 10 -4 15
-9 12 -5 -4 -12 0 -15 6 -5 11 -7 11 -12 0 -3 -6 -10 -10 -15 -6 -5 3 -2 12 6
20 13 14 17 14 30 0 9 -8 22 -13 29 -10 7 3 20 -2 29 -11 10 -9 18 -11 22 -5
3 5 1 10 -4 10 -6 0 -11 5 -11 11 0 6 7 9 15 6 8 -4 17 -2 21 4 3 6 12 8 20 5
8 -3 14 -1 14 5 0 6 7 9 15 5 9 -3 15 0 15 10 0 11 6 13 21 9 15 -5 19 -4 15
4 -9 15 17 14 32 -1 8 -8 15 -8 26 1 8 7 20 10 26 6 5 -3 13 1 16 9 3 9 10 13
15 10 5 -3 9 2 9 10 0 9 7 16 15 16 9 0 12 6 9 15 -4 8 -1 15 5 15 6 0 11 7
11 15 0 8 5 15 10 15 6 0 10 7 10 15 0 11 7 14 25 9 16 -4 25 -2 25 6 0 6 4 9
9 6 12 -8 137 36 183 63 70 42 86 98 43 150 -27 31 -129 86 -144 76 -5 -3 -11
0 -13 5 -2 6 -13 12 -26 13 -12 0 -22 4 -22 8 0 11 37 49 43 43 9 -10 97 36
136 72 21 19 44 48 51 65 18 43 -1 101 -43 133 -40 30 -130 56 -195 56 -28 0
-69 9 -93 20 -41 18 -115 25 -149 13z m113 -24 c42 -11 111 -68 132 -109 22
-42 28 -96 15 -134 -10 -33 -15 -36 -83 -51 -40 -10 -120 -19 -178 -22 l-107
-6 -17 27 c-10 14 -20 46 -23 71 -2 25 -9 45 -13 45 -5 0 -9 5 -9 11 0 5 4 8
8 5 5 -3 19 17 32 44 13 28 32 57 41 66 10 9 16 21 12 27 -3 6 -1 7 6 3 6 -4
18 -3 26 4 33 28 99 36 158 19z m246 -60 c56 -17 101 -61 101 -99 0 -72 -116
-145 -287 -179 -123 -25 -319 -28 -403 -6 -42 11 -56 12 -63 2 -6 -8 -7 -7 -4
5 3 9 -3 24 -14 34 -26 24 -50 72 -37 76 6 2 11 17 11 33 0 17 2 24 4 17 3 -8
19 0 45 23 23 19 56 39 74 45 19 7 34 15 34 18 0 4 13 8 30 9 27 2 29 0 18
-17 -7 -10 -31 -26 -55 -35 -26 -10 -40 -21 -36 -28 4 -6 0 -8 -10 -4 -23 9
-77 -45 -77 -76 0 -28 24 -52 41 -41 8 4 9 3 5 -4 -13 -22 101 -45 219 -44
260 2 511 106 465 192 -15 28 -55 46 -130 60 -62 12 -90 24 -90 39 0 10 105
-3 159 -20z m-9 -67 c48 -24 49 -45 3 -76 -21 -14 -43 -26 -49 -26 -10 0 -24
63 -24 106 0 19 27 17 70 -4z m-914 -67 c4 -8 16 -15 29 -15 12 0 28 -6 34
-14 10 -11 8 -16 -9 -21 -19 -6 -21 -12 -15 -41 7 -38 -7 -45 -36 -18 -15 14
-18 13 -37 -11 -20 -25 -21 -25 -27 -5 -3 11 -3 25 0 31 4 5 -1 19 -11 30 -16
17 -16 22 -4 29 8 6 20 10 27 10 6 0 15 9 18 20 7 24 23 26 31 5z m203 -175
c9 0 22 5 29 12 9 9 12 9 12 1 0 -8 29 -12 88 -12 102 0 189 -17 250 -47 2 -1
-6 -17 -17 -35 -26 -46 -50 -135 -49 -181 2 -34 5 -38 29 -38 15 0 29 7 33 15
3 8 17 15 31 15 16 0 25 -6 25 -15 0 -10 10 -15 29 -15 42 0 47 41 16 138 -24
74 -45 119 -45 96 0 -5 13 -49 29 -96 29 -85 29 -86 8 -92 -25 -6 -37 0 -37
20 0 23 -57 18 -63 -6 -6 -22 -14 -24 -36 -11 -11 7 -8 24 16 96 l29 88 54 16
c76 21 142 18 235 -14 134 -45 176 -95 123 -146 -35 -33 -144 -75 -246 -94
-12 -3 -34 -7 -50 -10 -15 -3 -37 -6 -50 -6 -13 1 -20 -4 -17 -9 3 -6 15 -10
26 -10 10 0 19 -7 19 -15 0 -8 -5 -15 -11 -15 -7 0 -9 -9 -5 -24 4 -18 1 -25
-14 -29 -11 -3 -19 -2 -18 2 2 20 -4 22 -22 6 -20 -18 -20 -17 -20 8 0 14 -4
29 -10 32 -5 3 -10 1 -10 -6 0 -7 -2 -10 -5 -7 -11 11 8 38 26 38 10 0 19 6
19 14 0 11 -13 13 -62 9 -35 -3 -64 -9 -65 -12 -2 -3 -69 -5 -150 -5 -461 4
-791 89 -758 193 20 65 242 129 505 147 62 4 100 11 101 18 0 7 3 6 6 -1 2 -7
12 -13 22 -13z m561 15 c0 -16 -91 -45 -140 -45 -81 0 -97 17 -24 25 32 3 75
10 94 15 43 10 70 12 70 5z m-920 -371 c0 -11 6 -13 19 -9 25 8 39 -15 17 -27
-11 -6 -14 -17 -10 -34 7 -26 -4 -32 -24 -12 -9 9 -15 9 -24 0 -18 -18 -30
-15 -26 6 2 11 -3 26 -11 35 -11 14 -11 18 5 24 11 3 23 12 27 20 11 18 27 16
27 -3z"/>
<path d="M1830 1470 c-12 -12 -20 -33 -20 -51 0 -18 -7 -37 -17 -44 -9 -7 -14
-19 -10 -29 8 -20 46 -21 53 -2 7 17 44 9 44 -10 0 -38 109 -41 133 -4 13 21
42 27 52 10 9 -15 35 -12 42 6 3 8 1 25 -5 37 -5 12 -15 36 -22 53 -19 51 -82
70 -114 35 -18 -19 -18 -19 -49 0 -41 24 -62 24 -87 -1z m54 -14 c-18 -14 -12
-36 11 -36 8 0 19 8 24 18 9 15 10 13 11 -10 0 -51 -67 -71 -91 -26 -14 25 -2
57 24 67 29 11 43 2 21 -13z m146 15 c0 -5 -5 -11 -12 -13 -7 -3 -9 -12 -5
-22 9 -22 43 -16 41 7 -1 9 2 14 7 11 13 -8 11 -48 -3 -62 -19 -19 -66 -15
-78 7 -14 28 -13 38 10 61 21 21 40 26 40 11z m-56 -97 c26 -10 8 -24 -31 -24
-30 0 -34 2 -23 15 13 16 29 19 54 9z m31 -44 c-3 -4 -24 -6 -48 -4 -36 3 -38
2 -12 -5 29 -8 29 -9 4 -10 -14 0 -33 5 -43 12 -16 12 -12 13 30 16 27 1 50 4
53 6 7 7 22 -6 16 -15z"/>
<path d="M1220 1035 l0 -125 30 0 c25 0 30 4 30 25 0 14 -3 24 -7 24 -41 -7
-43 -1 -43 96 0 88 1 95 20 95 16 0 20 -7 20 -35 0 -44 9 -44 38 0 15 25 30
35 47 35 32 0 31 -4 -4 -49 l-30 -37 37 -57 c20 -31 40 -56 45 -57 11 0 -18
54 -37 69 -21 18 -20 24 10 60 22 26 23 31 8 31 -16 0 -16 1 -1 18 10 10 17
22 17 25 0 14 -78 7 -91 -9 -11 -14 -13 -14 -21 0 -5 9 -22 16 -38 16 l-30 0
0 -125z"/>
<path d="M1482 1143 c-18 -36 -54 -153 -49 -166 2 -6 17 29 34 78 26 78 33 90
53 90 19 0 27 -12 54 -92 31 -89 32 -92 12 -97 -24 -6 -36 0 -36 20 0 23 -57
18 -63 -6 -4 -16 -11 -19 -39 -15 -18 3 -28 3 -22 0 7 -3 10 -15 7 -25 -4 -17
0 -20 26 -20 21 0 31 5 31 15 0 10 10 15 30 15 20 0 30 -5 30 -15 0 -10 10
-15 29 -15 23 0 30 5 34 27 6 30 -15 116 -43 180 -16 37 -23 43 -49 43 -19 0
-34 -7 -39 -17z"/>
<path d="M1640 1066 c0 -129 6 -156 36 -156 19 0 24 5 24 24 0 37 17 40 35 6
12 -23 22 -30 46 -30 26 0 29 3 24 20 -4 12 -2 20 5 20 9 0 8 7 -3 23 -12 18
-13 34 -6 71 7 36 5 54 -6 76 -18 34 -32 40 -101 40 l-54 0 0 -94z m137 58
c17 -24 17 -69 -2 -84 -13 -11 -12 -16 5 -40 26 -36 25 -46 -2 -46 -13 0 -28
12 -41 33 -23 40 -37 42 -37 5 0 -35 -6 -41 -31 -35 -17 5 -19 15 -19 92 0 48
3 91 8 95 14 15 105 0 119 -20z"/>
<path d="M1700 1085 c0 -18 5 -25 20 -25 25 0 38 29 19 41 -25 15 -39 10 -39
-16z"/>
<path d="M1508 1055 c-4 -19 -1 -25 12 -25 13 0 16 6 12 25 -2 14 -8 25 -12
25 -4 0 -10 -11 -12 -25z"/>
<path d="M1922 1060 c-7 -19 -6 -26 5 -28 21 -5 25 2 14 29 l-9 24 -10 -25z"/>
<path d="M1281 1017 c-12 -15 -5 -47 10 -47 4 0 16 -13 26 -30 14 -24 24 -30
50 -30 18 0 33 3 33 8 -1 18 -29 42 -43 36 -10 -4 -23 8 -40 36 -20 33 -26 38
-36 27z"/>
</g>
</svg>
